# AST/ASF file generated using VICON BodyLanguage
# -----------------------------------------------
:version 1.10
:name VICON
:units
  mass 1.0
  length 0.45
  angle deg
:documentation
   .ast/.asf automatically generated from VICON data using
   VICON BodyBuilder and BodyLanguage model FoxedUp or BRILLIANT.MOD
:root
   order TX TY TZ RX RY RZ
   axis XYZ
   position 0 0 0  
   orientation 0 0 0 
:bonedata
  begin
     id 1 
     name lhipjoint
     direction 0.714689 -0.624256 0.315473 
     length 2.45343 
     axis 0 0 0  XYZ
  end
  begin
     id 2 
     name lfemur
     direction 0.34202 -0.939693 0  
     length 6.59069  
     axis 0 0 20  XYZ
    dof rx ry rz
    limits (-160.0 20.0)
           (-70.0 70.0)
           (-60.0 70.0)
  end
  begin
     id 3 
     name ltibia
     direction 0.34202 -0.939693 0   
     length 6.73476   
     axis 0 0 20   XYZ
    dof rx
    limits (-10.0 170.0)
  end
  begin
     id 4 
     name lfoot
     direction 0.0718085 -0.197292 0.977711   
     length 1.52607   
     axis -90 7.62852e-016 20   XYZ
    dof rx rz
    limits (-45.0 90.0)
           (-70.0 20.0)
  end
  begin
     id 5 
     name ltoes
     direction 1.53553e-011 -4.22024e-011 1   
     length 0.777832   
     axis -90 7.62852e-016 20   XYZ
    dof rx
    limits (-90.0 20.0)
  end
  begin
     id 6 
     name rhipjoint
     direction -0.727419 -0.612432 0.309497   
     length 2.50079  
     axis 0 0 0  XYZ 
  end
  begin
     id 7 
     name rfemur
     direction -0.34202 -0.939693 0   
     length 6.51665   
     axis 0 0 -20   XYZ
    dof rx ry rz
    limits (-160.0 20.0)
           (-70.0 70.0)
           (-70.0 60.0)
  end
  begin
     id 8 
     name rtibia
     direction -0.34202 -0.939693 0   
     length 6.48919   
     axis 0 0 -20   XYZ
    dof rx
    limits (-10.0 170.0)
 end
 begin
     id 9 
     name rfoot
     direction -0.112205 -0.308282 0.944655   
     length 1.68717  
     axis -90 -7.62852e-016 -20   XYZ
    dof rx rz
    limits (-45.0 90.0)
           (-20.0 70.0)
  end
  begin
     id 10 
     name rtoes
     direction -1.53583e-011 -4.21993e-011 1   
     length 0.846859   
     axis -90 -7.62852e-016 -20   XYZ
    dof rx
    limits (-90.0 20.0)
  end
  begin
     id 11 
     name lowerback
     direction -0.00119603 0.996364 -0.0851956   
     length 1.67242   
     axis 0 0 0   XYZ
    dof rx ry rz
    limits (-20.0 45.0)
           (-30.0 30.0)
           (-30.0 30.0)
  end
  begin
     id 12 
     name upperback
     direction -0.00531001 0.998318 0.0577248   
     length 1.64819   
     axis 0 0 0   XYZ
    dof rx ry rz
    limits (-20.0 45.0)
           (-30.0 30.0)
           (-30.0 30.0)
  end
  begin
     id 13 
     name thorax
     direction -0.00653676 0.995132 0.0983291   
     length 1.67429   
     axis 0 0 0   XYZ
    dof rx ry rz
    limits (-20.0 45.0)
           (-30.0 30.0)
           (-30.0 30.0)
  end
  begin
     id 14 
     name lowerneck
     direction 0.0141424 0.999886 0.00525412   
     length 1.59623   
     axis 0 0 0   XYZ
    dof rx ry rz
    limits (-20.0 45.0)
           (-30.0 30.0)
           (-30.0 30.0)
  end
  begin
     id 15 
     name upperneck
     direction -0.0640064 0.987178 -0.146232   
     length 1.59576   
     axis 0 0 0   XYZ
    dof rx ry rz
    limits (-20.0 45.0)
           (-30.0 30.0)
           (-30.0 30.0)
  end
  begin
     id 16
     name head
     direction -0.0222942 0.998496 -0.0500859  
     length 1.60959  
     axis 0 0 0   XYZ
    dof rx ry rz
    limits (-20.0 45.0)
           (-30.0 30.0)
           (-30.0 30.0)
  end
  begin
     id 17 
     name lclavicle
     direction 0.908549 0.392612 0.142806  
     length 2.80649  
     axis 0 0 0   XYZ
    dof ry rz
    limits (-20.0 10.0)
           (0.0 20.0)
  end
  begin
     id 18 
     name lhumerus
     direction 1 -4.48968e-011 1.08832e-028   
     length 4.2884   
     axis -180 -30 -90   XYZ
    dof rx ry rz
    limits (-60.0 90.0)
           (-90.0 90.0)
           (-90.0 90.0)
  end
  begin
     id 19
     name lradius
     direction 1 -4.48952e-011 -3.02642e-028   
     length 3.06552   
     axis -180 -30 -90   XYZ
    dof rx
    limits (-10.0 170.0)
  end
  begin
     id 20
     name lwrist
     direction 1 -4.49014e-011 1.58672e-027   
     length 1.53276   
     axis -1.65735e-015 90 90   XYZ
    dof ry
    limits (-180.0 0.0)
 end
  begin
     id 21 
     name lhand
     direction 1 -4.48928e-011 3.17344e-027   
     length 0.753045   
     axis -2.02492e-015 90 90   XYZ
    dof rx rz
    limits (-90.0 90.0)
           (-45.0 45.0)
  end
  begin
     id 22 
     name lfingers
     direction 1 -4.48958e-011 6.34687e-027   
     length 0.607124   
     axis -4.04985e-015 90 90   XYZ
    dof rx
    limits (0.0 90.0)
  end
  begin
     id 23
     name lthumb
     direction 0.707107 -6.34905e-011 0.707107   
     length 0.871712   
     axis -90 45 2.85299e-015   XYZ
    dof rx rz
    limits (-45.0 45.0)
           (-45.0 45.0)
  end
  begin
     id 24 
     name rclavicle
     direction -0.885098 0.45949 0.0739604   
     length 2.9478  
     axis 0 0 0   XYZ 
    dof ry rz
    limits (-10.0 20.0)
           (-20.0 0.0)
  end
  begin
     id 25 
     name rhumerus
     direction -1 -4.4898e-011 -2.61739e-027  
     length 4.52172   
     axis -180 30 90   XYZ
    dof rx ry rz
    limits (-90.0 60.0)
           (-90.0 90.0)
           (-90.0 90.0)
  end
  begin
     id 26 
     name rradius
     direction -1 -4.48945e-011 9.02552e-028   
     length 2.8914   
     axis -180 30 90   XYZ
    dof rx
    limits (-10.0 170.0)
  end
  begin
     id 27 
     name rwrist
     direction -1 -4.49018e-011 1.58672e-027   
     length 1.4457   
     axis -1.65735e-015 -90 -90   XYZ
    dof ry
    limits (-180.0 0.0)
  end
  begin
     id 28
     name rhand
     direction -1 -4.48825e-011 3.17344e-027   
     length 0.680541   
     axis -2.02492e-015 -90 -90   XYZ
    dof rx rz
    limits (-90.0 90.0)
           (-45.0 45.0)
  end
  begin
     id 29
     name rfingers
     direction -1 -4.49067e-011 6.34687e-027   
     length 0.54867   
     axis -4.04985e-015 -90 -90   XYZ
    dof rx
    limits (0.0 90.0)
  end
  begin
     id 30
     name rthumb
     direction -0.707107 -6.34833e-011 0.707107   
     length 0.787783   
     axis -90 -45 -2.85299e-015   XYZ
    dof rx rz
    limits (-45.0 45.0)
           (-45.0 45.0)
  end
:hierarchy
  begin
    root lhipjoint rhipjoint lowerback
    lhipjoint lfemur
    lfemur ltibia
    ltibia lfoot
    lfoot ltoes
    rhipjoint rfemur
    rfemur rtibia
    rtibia rfoot
    rfoot rtoes
    lowerback upperback
    upperback thorax
    thorax lowerneck lclavicle rclavicle
    lowerneck upperneck
    upperneck head
    lclavicle lhumerus
    lhumerus lradius
    lradius lwrist
    lwrist lhand lthumb
    lhand lfingers
    rclavicle rhumerus
    rhumerus rradius
    rradius rwrist
    rwrist rhand rthumb
    rhand rfingers
  end

#!OML:ASF E:\emotionWalksFemale\Project 1\Capture day 1\Session 1\Female1.ASF
:FULLY-SPECIFIED
:DEGREES
79
root 8.65109 15.179 23.2475 -169.544 0.0271915 -178.385
lowerback 16.7213 0.748027 1.40149
upperback -1.6415 1.29747 -0.200865
thorax -11.1955 0.532354 -1.35686
lowerneck -11.4546 -3.54814 -6.94536
upperneck -2.4543 -4.39295 7.94905
head 1.60395 -2.16193 3.64298
rclavicle -2.08475e-014 8.15017e-015
rhumerus -56.4426 28.0301 -99.495
rradius 51.5794
rwrist 15.8145
rhand -19.9648 -49.324
rfingers 7.12502
rthumb 6.37376 -79.2081
lclavicle -2.08475e-014 8.15017e-015
lhumerus -54.8893 -15.2283 89.7053
lradius 43.68
lwrist 0.765451
lhand -4.87592 -41.1138
lfingers 7.12502
lthumb 20.9126 -12.2211
rfemur -26.1992 4.12479 24.1838
rtibia 36.9287
rfoot -21.0355 -19.0442
rtoes -9.48665
lfemur -30.495 -5.10268 -19.5737
ltibia 40.7661
lfoot -24.7274 7.41019
ltoes -42.5568
80
root 8.65887 15.1599 23.268 -169.123 -0.0577585 -178.45
lowerback 16.6334 0.749349 1.34788
upperback -1.46759 1.28777 -0.233847
thorax -10.95 0.536574 -1.35602
lowerneck -11.434 -3.55818 -6.80788
upperneck -2.94442 -4.43594 7.83967
head 1.43117 -2.20426 3.5747
rclavicle -9.56651e-015 6.95746e-016
rhumerus -56.1276 28.5203 -99.3216
rradius 52.3395
rwrist 15.4554
rhand -19.5227 -49.2555
rfingers 7.12502
rthumb 6.8006 -79.1263
lclavicle -9.56651e-015 6.95746e-016
lhumerus -54.1658 -16.0229 89.6625
lradius 44.0914
lwrist 1.02565
lhand -4.80253 -40.5968
lfingers 7.12502
lthumb 20.9831 -11.7119
rfemur -27.1288 3.89436 24.1478
rtibia 37.6571
rfoot -21.2918 -18.9124
rtoes -9.52021
lfemur -31.3577 -4.97395 -19.593
ltibia 41.3017
lfoot -24.9777 7.13862
ltoes -42.5172
81
root 8.66594 15.1365 23.298 -168.654 -0.181984 -178.44
lowerback 16.6134 0.798353 1.38496
upperback -1.30246 1.26914 -0.241761
thorax -10.7522 0.491354 -1.37093
lowerneck -11.3852 -3.56467 -6.72861
upperneck -3.45349 -4.4728 7.82761
head 1.25272 -2.24342 3.55363
rclavicle -5.71506e-016 -1.39149e-015
rhumerus -55.8156 29.1433 -99.2153
rradius 53.1082
rwrist 15.0895
rhand -19.1244 -49.392
rfingers 7.12502
rthumb 7.18503 -79.25
lclavicle -5.71506e-016 -1.39149e-015
lhumerus -53.3516 -16.9481 89.6143
lradius 44.4698
lwrist 1.40771
lhand -4.84138 -40.4638
lfingers 7.12502
lthumb 20.9458 -11.5747
rfemur -28.1782 3.73712 24.1842
rtibia 38.3948
rfoot -21.3207 -18.8822
rtoes -10.0123
lfemur -32.3785 -4.87907 -19.5158
ltibia 41.9097
lfoot -25.1713 7.02966
ltoes -42.7142
82
root 8.67444 15.1121 23.3339 -168.13 -0.240927 -178.441
lowerback 16.8199 0.80404 1.352
upperback -1.25 1.26782 -0.24664
thorax -10.8132 0.490045 -1.36052
lowerneck -11.4712 -3.58378 -6.81082
upperneck -3.73888 -4.50126 7.94722
head 1.18206 -2.26722 3.60963
rclavicle -4.96962e-017 2.98177e-015
rhumerus -55.5379 30.0124 -99.2592
rradius 53.6624
rwrist 14.7262
rhand -18.9099 -49.4412
rfingers 7.12502
rthumb 7.39209 -79.292
lclavicle -4.96962e-017 2.98177e-015
lhumerus -52.743 -17.9372 89.5596
lradius 44.9266
lwrist 1.93335
lhand -4.71612 -40.2825
lfingers 7.12502
lthumb 21.0661 -11.4067
rfemur -29.3216 3.63545 24.2116
rtibia 39.1378
rfoot -21.2537 -18.9619
rtoes -10.494
lfemur -33.4973 -4.78064 -19.4475
ltibia 42.5649
lfoot -25.1826 7.00997
ltoes -42.9843
83
root 8.68475 15.0877 23.3657 -167.594 -0.440355 -178.502
lowerback 17.1322 0.761462 1.30691
upperback -1.31494 1.20451 -0.270491
thorax -11.0686 0.458249 -1.35204
lowerneck -11.4941 -3.59169 -6.7942
upperneck -3.91533 -4.52163 7.98535
head 1.12985 -2.28463 3.61877
rclavicle 3.3048e-015 3.97569e-015
rhumerus -55.477 30.7114 -99.367
rradius 54.258
rwrist 14.3472
rhand -18.8171 -49.3515
rfingers 7.12502
rthumb 7.4817 -79.1992
lclavicle 3.3048e-015 3.97569e-015
lhumerus -52.3 -18.8184 89.4755
lradius 45.3939
lwrist 2.45152
lhand -4.9547 -39.9997
lfingers 7.12502
lthumb 20.8369 -11.0986
rfemur -30.4012 3.4098 24.2164
rtibia 39.827
rfoot -21.4017 -18.942
rtoes -10.0416
lfemur -34.6124 -4.77995 -19.423
ltibia 43.1836
lfoot -25.1431 6.90027
ltoes -43.1695
84
root 8.69069 15.0635 23.3928 -167.149 -0.583091 -178.505
lowerback 17.3992 0.728489 1.3586
upperback -1.33595 1.1705 -0.301661
thorax -11.2459 0.43477 -1.41228
lowerneck -11.3493 -3.56455 -6.59775
upperneck -4.26779 -4.52434 7.92426
head 0.979469 -2.30394 3.56159
rclavicle 7.45443e-016 -2.48481e-015
rhumerus -55.3928 31.2851 -99.4464
rradius 54.8669
rwrist 13.9685
rhand -18.6295 -49.3201
rfingers 7.12502
rthumb 7.6628 -79.1613
lclavicle 7.45443e-016 -2.48481e-015
lhumerus -51.905 -19.469 89.3087
lradius 46.0032
lwrist 2.9576
lhand -4.43813 -38.978
lfingers 7.12502
lthumb 21.3332 -10.1323
rfemur -31.3015 3.19697 24.2535
rtibia 40.3992
rfoot -21.5308 -18.7562
rtoes -9.52856
lfemur -35.5251 -4.71603 -19.3873
ltibia 43.6615
lfoot -25.1887 6.80564
ltoes -43.4472
85
root 8.69233 15.0539 23.4041 -166.81 -0.513671 -178.554
lowerback 17.4453 0.778281 1.37962
upperback -1.20192 1.22743 -0.358838
thorax -11.118 0.457725 -1.50061
lowerneck -11.3332 -3.58388 -6.52866
upperneck -4.69701 -4.57745 7.91249
head 0.836075 -2.3505 3.54314
rclavicle 7.37988e-015 -6.55989e-015
rhumerus -55.0995 31.9793 -99.3872
rradius 55.377
rwrist 13.6613
rhand -18.3391 -49.42
rfingers 7.12502
rthumb 7.94303 -79.2508
lclavicle 7.37988e-015 -6.55989e-015
lhumerus -51.4304 -20.3135 89.1301
lradius 46.7633
lwrist 3.46376
lhand -2.32339 -36.4939
lfingers 7.12502
lthumb 23.3632 -7.89186
rfemur -32.0423 2.98894 24.2048
rtibia 41.0901
rfoot -21.6977 -18.5963
rtoes -10.5341
lfemur -36.2215 -4.55945 -19.4764
ltibia 44.3395
lfoot -25.6095 6.81221
ltoes -43.6104
